<svg width="143" height="26" viewBox="0 0 143 26" fill="none" xmlns="http://www.w3.org/2000/svg">
<path d="M0.461914 24.9999V0.689941H9.70992L13.4499 14.2899H13.5179L17.2579 0.689941H26.5739V24.9999H20.1479V9.76794H20.0799L16.0339 24.9999H10.8319L6.78591 9.76794H6.71791V24.9999H0.461914Z" fill="black"/>
<path d="M29.4814 24.9999V0.689941H36.5874V24.9999H29.4814Z" fill="black"/>
<path d="M38.5568 6.74194V0.689941H59.5008V6.74194H52.5308V24.9999H45.4248V6.74194H38.5568Z" fill="black"/>
<path d="M67.2833 24.9999V0.689941H69.5613V22.8919H82.5153V24.9999H67.2833Z" fill="black"/>
<path d="M91.5166 25.4419C86.2466 25.4419 83.3226 21.4979 83.3226 16.2279C83.3226 10.9579 86.4846 7.01394 91.3466 7.01394C96.9906 7.01394 98.9286 11.6719 98.8946 16.6019H85.4986C85.6006 20.5459 87.5046 23.6399 91.5166 23.6399C94.4406 23.6399 95.9706 22.0759 96.6506 19.6959H98.6906C97.9426 23.1639 95.4606 25.4419 91.5166 25.4419ZM85.5326 14.9359H96.6846C96.5826 11.4679 94.9506 8.74794 91.3466 8.74794C87.7766 8.74794 85.9066 11.4339 85.5326 14.9359Z" fill="black"/>
<path d="M106.266 25.4079C103.002 25.4079 100.52 23.7759 100.52 20.5119C100.52 16.3299 103.784 15.4799 107.762 15.0039C111.23 14.5959 112.488 14.3919 112.488 12.6239V12.2839C112.488 9.90394 110.992 8.74794 108.272 8.74794C105.144 8.74794 103.512 10.0399 103.342 12.6579H101.268C101.506 9.25794 103.75 7.04794 108.272 7.04794C112.114 7.04794 114.494 8.64594 114.494 12.4879V22.0419C114.494 23.0959 114.902 23.5379 115.65 23.5719C115.888 23.5719 116.126 23.5039 116.432 23.4359H116.534V24.9659C116.228 25.1019 115.786 25.2379 115.106 25.2379C113.576 25.2379 112.624 24.4559 112.522 22.7559V22.3819H112.42C111.434 23.7759 109.632 25.4079 106.266 25.4079ZM106.64 23.7079C110.482 23.7079 112.522 21.0559 112.522 18.6419V15.4799C111.4 16.0919 109.666 16.3979 107.966 16.6359C105.008 17.0439 102.73 17.4859 102.73 20.5119C102.73 22.9599 104.566 23.7079 106.64 23.7079Z" fill="black"/>
<path d="M118.473 24.9999V7.42194H120.581V10.6859H120.649C121.737 8.64594 123.573 7.28594 126.021 7.28594C126.293 7.28594 126.463 7.31994 126.599 7.35394V9.42794C125.341 9.22394 123.947 9.49594 122.859 10.2779C121.499 11.2979 120.581 12.9299 120.581 15.0039V24.9999H118.473Z" fill="black"/>
<path d="M128.932 24.9999V7.42194H131.04V10.1079H131.108C132.298 8.33994 134.202 7.04794 136.99 7.04794C140.254 7.04794 142.6 8.98594 142.6 12.5219V24.9999H140.492V12.7259C140.492 10.0739 138.962 8.84994 136.48 8.84994C133.488 8.84994 131.04 10.9579 131.04 13.8479V24.9999H128.932Z" fill="black"/>
</svg>
