<?xml version="1.0" encoding="utf-8"?>
<!-- Generator: Adobe Illustrator 28.3.0, SVG Export Plug-In . SVG Version: 6.00 Build 0)  -->
<svg version="1.1" xmlns="http://www.w3.org/2000/svg" xmlns:xlink="http://www.w3.org/1999/xlink" x="0px" y="0px"
	 viewBox="0 0 4173.97 787.59" style="enable-background:new 0 0 4173.97 787.59;" xml:space="preserve">
<style type="text/css">
	.st0{display:none;}
	.st1{fill:#9D9FA2;}
</style>
<g id="Background" class="st0">
</g>
<g id="Artwork">
	<path d="M720,717.1h160v-480H720V717.1z M960,157.1h400v-160H960V157.1z M720-2.9h160v160H720V-2.9z M480,717.1h160v-720H480V717.1
		z M240,557.1h160v-560H240V557.1z M0,717.1h160v-720H0V717.1z M960,717.1h160v-480H960V717.1z"/>
	<g>
		<g>
			<path class="st1" d="M1510.07,567.73c0-89.79,56.22-156.51,144.76-156.51c88.53,0,144.34,66.71,144.34,156.51
				c0,89.79-55.8,156.09-144.34,156.09C1566.29,723.81,1510.07,657.52,1510.07,567.73z M1737.07,567.73
				c0-60-26.85-106.58-81.82-106.58s-83.08,46.57-83.08,106.58c0,59.58,28.11,106.16,83.08,106.16S1737.07,627.31,1737.07,567.73z"
				/>
			<path class="st1" d="M1827.69,501.85h54.97v26.85h1.26c13.85-18.88,33.99-32.73,63.36-32.73c57.06,0,93.57,46.57,93.57,113.71
				c0,69.65-37.76,113.71-93.15,113.71c-30.21,0-49.93-12.17-62.1-30.63h-0.84v94.83h-57.06V501.85z M1982.94,611.36
				c0-40.7-14.27-69.23-49.51-69.23c-35.67,0-49.93,30.63-49.93,69.23c0,39.02,18.04,64.62,52.03,64.62
				C1964.48,675.98,1982.94,652.06,1982.94,611.36z"/>
			<path class="st1" d="M2056.78,609.27c0-63.78,43.22-113.29,106.16-113.29c69.23,0,106.16,52.87,106.16,129.65h-156.09
				c4.2,33.15,22.66,53.71,54.97,53.71c22.24,0,35.25-10.07,41.54-26.43h56.22c-7.97,38.18-41.96,70.49-97.34,70.49
				C2097.06,723.39,2056.78,673.46,2056.78,609.27z M2113.85,586.19h95.67c-1.68-27.27-19.72-46.15-45.73-46.15
				C2133.57,540.03,2118.88,558.08,2113.85,586.19z"/>
			<path class="st1" d="M2351.33,531.22h1.26c14.69-23.08,34.41-35.25,63.78-35.25c44.48,0,74.27,33.57,74.27,80.56V717.1h-57.06
				V584.93c0-23.08-13.43-39.44-37.34-39.44c-25.17,0-43.64,20.14-43.64,49.51v122.1h-57.06V501.85h55.8V531.22z"/>
			<path class="st1" d="M2600.97,417.1h60.84v249.23h140.98v50.77h-201.82V417.1z"/>
			<path class="st1" d="M2816.22,609.27c0-63.78,43.22-113.29,106.16-113.29c69.23,0,106.16,52.87,106.16,129.65h-156.09
				c4.2,33.15,22.66,53.71,54.97,53.71c22.24,0,35.25-10.07,41.54-26.43h56.22c-7.97,38.18-41.96,70.49-97.34,70.49
				C2856.5,723.39,2816.22,673.46,2816.22,609.27z M2873.28,586.19h95.67c-1.68-27.27-19.72-46.15-45.73-46.15
				C2893,540.03,2878.32,558.08,2873.28,586.19z"/>
			<path class="st1" d="M3183.77,693.18h-0.84c-10.91,16.36-26.43,28.95-63.36,28.95c-44.06,0-75.11-23.08-75.11-65.88
				c0-47.41,38.6-62.52,86.44-69.23c35.66-5.04,52.03-7.97,52.03-24.34c0-15.52-12.17-25.59-36.08-25.59
				c-26.85,0-39.86,9.65-41.54,30.21h-50.77c1.68-37.76,29.79-70.91,92.73-70.91c64.62,0,90.63,28.95,90.63,79.3v109.51
				c0,16.36,2.52,26.01,7.55,29.79v2.1h-54.97C3187.12,712.9,3185.03,702.83,3183.77,693.18z M3184.19,641.15v-32.31
				c-10.07,5.88-25.59,9.23-39.86,12.59c-29.79,6.71-44.48,13.43-44.48,33.57c0,20.14,13.43,27.27,33.57,27.27
				C3166.14,682.27,3184.19,662.13,3184.19,641.15z"/>
			<path class="st1" d="M3328.94,536.26h1.26c13.01-24.34,27.69-36.92,52.87-36.92c6.29,0,10.07,0.42,13.43,1.68v49.93h-1.26
				c-37.34-3.78-64.2,15.94-64.2,61.26v104.9h-57.06V501.85h54.97V536.26z"/>
			<path class="st1" d="M3477.05,531.22h1.26c14.69-23.08,34.41-35.25,63.78-35.25c44.48,0,74.27,33.57,74.27,80.56V717.1h-57.06
				V584.93c0-23.08-13.43-39.44-37.34-39.44c-25.17,0-43.64,20.14-43.64,49.51v122.1h-57.06V501.85h55.8V531.22z"/>
			<path class="st1" d="M3651.59,417.1h57.06v51.19h-57.06V417.1z M3651.59,501.85h57.06V717.1h-57.06V501.85z"/>
			<path class="st1" d="M3801.38,531.22h1.26c14.69-23.08,34.41-35.25,63.78-35.25c44.48,0,74.27,33.57,74.27,80.56V717.1h-57.06
				V584.93c0-23.08-13.43-39.44-37.34-39.44c-25.17,0-43.64,20.14-43.64,49.51v122.1h-57.06V501.85h55.8V531.22z"/>
			<path class="st1" d="M3970.05,723.39h56.64c4.62,13.43,16.78,23.92,43.22,23.92c32.31,0,47.83-15.52,47.83-44.9v-23.5h-1.26
				c-12.59,14.27-28.95,25.17-56.22,25.17c-47.83,0-94.83-37.76-94.83-102.8c0-64.2,38.6-105.32,93.15-105.32
				c26.85,0,46.57,10.49,59.58,28.53h0.84v-22.66h54.97v198.88c0,30.21-9.65,50.77-25.59,65.46
				c-18.04,16.78-45.74,24.34-77.62,24.34C4012.01,790.53,3975.92,765.35,3970.05,723.39z M4120.68,600.04
				c0-31.47-16.78-58.32-51.19-58.32c-28.95,0-48.25,22.66-48.25,58.74c0,36.5,19.3,57.9,48.67,57.9
				C4105.99,658.36,4120.68,631.92,4120.68,600.04z"/>
		</g>
	</g>
	<g>
		<path d="M1521.69,0h129.02c83.75,0,140.01,60.49,140.01,153.13c0,53.3-18.61,96.02-52.45,121.83
			c-23.69,17.77-54.14,27.5-92.21,27.5h-124.36V0z M1640.55,239.42c49.07,0,74.45-30.88,74.45-86.29c0-54.99-26.65-90.52-73.6-90.52
			h-44.84v176.82H1640.55z"/>
		<path d="M1794.94,241.96c0-47.8,38.07-62.18,82.91-68.1c40.61-5.08,54.99-9.31,54.99-24.11c0-13.96-8.88-23.27-29.61-23.27
			c-22,0-32.99,9.73-35.11,27.92h-63.45c1.69-40.19,32.57-74.45,98.14-74.45c32.57,0,54.57,5.92,70.22,17.77
			c18.61,13.54,27.5,34.69,27.5,61.76v109.14c0,17.34,1.69,27.07,7.61,30.88v2.96h-66.83c-3.38-4.65-5.5-13.11-7.19-24.11h-0.85
			c-12.69,18.19-31.72,29.61-64.3,29.61C1825.82,307.95,1794.94,284.68,1794.94,241.96z M1934.54,225.04v-25.8
			c-8.88,4.65-21.57,8.04-35.53,11.42c-26.65,5.92-37.65,12.69-37.65,29.19c0,17.34,12.69,24.11,29.61,24.11
			C1916.77,263.95,1934.54,248.3,1934.54,225.04z"/>
		<path d="M2038.17,245.34V129.02h-28.76V85.87h28.76V17.34h67.26v68.53h39.34v43.15h-39.34v101.52c0,16.92,9.31,21.15,24.11,21.15
			c5.92,0,12.69-0.42,15.23-0.42v50.34c-5.92,1.69-19.04,3.38-37.65,3.38C2066.93,304.99,2038.17,291.87,2038.17,245.34z"/>
		<path d="M2155.33,241.96c0-47.8,38.07-62.18,82.91-68.1c40.61-5.08,54.99-9.31,54.99-24.11c0-13.96-8.88-23.27-29.61-23.27
			c-22,0-32.99,9.73-35.11,27.92h-63.45c1.69-40.19,32.57-74.45,98.14-74.45c32.57,0,54.57,5.92,70.22,17.77
			c18.61,13.54,27.5,34.69,27.5,61.76v109.14c0,17.34,1.69,27.07,7.61,30.88v2.96h-66.83c-3.38-4.65-5.5-13.11-7.19-24.11h-0.85
			c-12.69,18.19-31.72,29.61-64.3,29.61C2186.21,307.95,2155.33,284.68,2155.33,241.96z M2294.92,225.04v-25.8
			c-8.88,4.65-21.57,8.04-35.53,11.42c-26.65,5.92-37.65,12.69-37.65,29.19c0,17.34,12.69,24.11,29.61,24.11
			C2277.16,263.95,2294.92,248.3,2294.92,225.04z"/>
		<path d="M2447.2,0h136.21c36.8,0,63.87,10.15,82.49,27.92c19.46,18.19,30.46,43.99,30.46,74.45c0,57.95-40.19,98.98-102.37,98.98
			h-70.64v101.1h-76.14V0z M2578.75,142.13c27.07,0,42.3-16.07,42.3-40.19s-15.65-38.92-42.3-38.92h-55.41v79.1H2578.75z"/>
		<path d="M2710.72,0h69.8v302.45h-69.8V0z"/>
		<path d="M2795.32,241.96c0-47.8,38.07-62.18,82.91-68.1c40.61-5.08,54.99-9.31,54.99-24.11c0-13.96-8.88-23.27-29.61-23.27
			c-22,0-32.99,9.73-35.11,27.92h-63.45c1.69-40.19,32.57-74.45,98.14-74.45c32.57,0,54.57,5.92,70.22,17.77
			c18.61,13.54,27.5,34.69,27.5,61.76v109.14c0,17.34,1.69,27.07,7.61,30.88v2.96h-66.83c-3.38-4.65-5.5-13.11-7.19-24.11h-0.85
			c-12.69,18.19-31.72,29.61-64.3,29.61C2826.2,307.95,2795.32,284.68,2795.32,241.96z M2934.91,225.04v-25.8
			c-8.88,4.65-21.57,8.04-35.53,11.42c-26.65,5.92-37.65,12.69-37.65,29.19c0,17.34,12.69,24.11,29.61,24.11
			C2917.14,263.95,2934.91,248.3,2934.91,225.04z"/>
		<path d="M3038.54,245.34V129.02h-28.76V85.87h28.76V17.34h67.26v68.53h39.34v43.15h-39.34v101.52c0,16.92,9.31,21.15,24.11,21.15
			c5.92,0,12.69-0.42,15.23-0.42v50.34c-5.92,1.69-19.04,3.38-37.65,3.38C3067.3,304.99,3038.54,291.87,3038.54,245.34z"/>
		<path d="M3172.21,129.86h-27.92V85.87h27.92V70.22c0-22.42,6.34-38.92,17.77-50.34c18.61-18.19,54.57-22.42,91.79-18.61v48.65
			c-26.23-0.85-40.61,1.27-40.61,25.38v10.58h40.61v43.99h-40.61v172.59h-68.95V129.86z"/>
		<path d="M3275.85,194.58c0-65.14,46.53-114.63,115.9-114.63c69.8,0,115.48,49.49,115.48,114.63s-45.68,114.63-115.48,114.63
			C3322.38,309.22,3275.85,259.72,3275.85,194.58z M3437.43,194.58c0-39.34-16.07-65.99-46.11-65.99s-45.68,26.65-45.68,65.99
			s15.65,65.57,45.68,65.57S3437.43,233.92,3437.43,194.58z"/>
		<path d="M3522.03,85.87h65.99v33.84h1.27c15.23-25.8,32.99-37.22,59.22-37.22c6.34,0,10.58,0.42,13.54,1.69v59.22h-1.69
			c-42.3-5.92-69.37,14.81-69.37,61.76v97.29h-68.95V85.87z"/>
		<path d="M3675.58,85.87h65.99v30.88h1.27c13.54-22.42,34.26-37.22,65.57-37.22c28.34,0,49.92,14.81,60.91,38.07h0.85
			c16.92-26.23,40.19-38.07,68.1-38.07c49.07,0,73.6,33.42,73.6,82.06v140.86h-68.95V173.85c0-23.27-9.73-36.8-30.46-36.8
			c-22,0-34.26,18.19-34.26,43.99v121.4h-68.95V173.85c0-23.27-9.73-36.8-30.46-36.8c-21.57,0-34.26,18.19-34.26,43.99v121.4h-68.95
			V85.87z"/>
	</g>
</g>
<g id="Guides" class="st0">
</g>
</svg>
